<svg width="24" height="24" viewBox="0 0 24 24" fill="none" xmlns="http://www.w3.org/2000/svg">
<path fill-rule="evenodd" clip-rule="evenodd" d="M21 21H17.5717C17.5717 12.9649 11.0352 6.42836 3.00019 6.42836V3C12.9252 3 21 11.0749 21 21ZM3.00019 18.4286C3.00019 17.0085 4.15154 15.8571 5.57159 15.8571C6.99165 15.8571 8.14299 17.0085 8.14299 18.4286C8.14299 19.8486 6.99165 21 5.57159 21C4.15154 21 3.00019 19.8486 3.00019 18.4286ZM11.5718 21H15.0001C15.0001 14.3831 9.61686 8.99979 3 8.99979V12.4288C7.72623 12.4288 11.5718 16.2737 11.5718 21Z" fill="#F9DE4E"/>
</svg>
