<svg width="24" height="24" viewBox="0 0 24 24" fill="none" xmlns="http://www.w3.org/2000/svg">
<path fill-rule="evenodd" clip-rule="evenodd" d="M11.8078 13.5863C10.9134 13.5863 8.71698 13.5891 8.71698 13.5891V11.4109H14.2075C14.59 14.0465 13.4364 18 8.71698 18C5.55957 18 3 15.5375 3 12.5C3 9.46242 5.55957 7 8.71698 7C10.1985 7 11.5484 7.54216 12.5641 8.43152C11.777 9.14656 11.5247 9.41914 11.3103 9.65073C11.1988 9.77121 11.0976 9.88059 10.9366 10.0354C10.3492 9.56801 9.70868 9.23267 8.71698 9.23267C6.8413 9.23267 5.37736 10.6955 5.37736 12.5C5.37736 14.3045 6.8413 15.7673 8.71698 15.7673C10.5704 15.7673 11.3235 14.9984 11.8078 13.5863ZM19.0189 9.61386V11.5198H21V12.8812H19.0189V14.8416H17.6038V12.8812H15.566V11.5198H17.6038V9.61386H19.0189Z" fill="#F9DE4E"/>
</svg>
